<mxfile host="app.diagrams.net" modified="2023-11-06T07:34:48.622Z" agent="Mozilla/5.0 (Macintosh; Intel Mac OS X 10_15_7) AppleWebKit/537.36 (KHTML, like Gecko) Chrome/118.0.0.0 Safari/537.36 Edg/118.0.2088.76" version="22.0.8" etag="EapaAK7mE3ZrPu4skQ76" type="github">
  <diagram name="第 1 页" id="k_kBE_znsccp0YxZL7Jc">
    <mxGraphModel>
      <root>
        <mxCell id="0" />
        <mxCell id="1" parent="0" />
      </root>
    </mxGraphModel>
  </diagram>
</mxfile>
